<svg width="32" height="32" viewBox="0 0 32 32" fill="none" xmlns="http://www.w3.org/2000/svg">
<g clip-path="url(#clip0_35176_9938)">
<path fill-rule="evenodd" clip-rule="evenodd" d="M12.8347 0.0848C13.7768 -0.160789 14.8377 0.123525 15.5256 0.98386C15.7666 1.28528 16.014 1.61578 16.2618 1.97309L17.7636 0.816867L17.8275 0.7697C19.1764 -0.196456 21.1023 0.651867 21.2486 2.30709L21.7639 8.1372C23.135 8.47973 24.6291 9.0352 26.2616 9.92527C27.3585 10.5233 27.6912 11.9582 26.8939 12.9623C25.918 14.1913 24.4868 15.6158 22.682 16.4444L26.4896 26.7096C26.9069 27.8346 26.853 29.0847 26.3108 30.1107C25.7465 31.1786 24.6566 31.9686 23.2252 31.9978C21.0041 32.0431 18.2717 31.4073 15.8222 29.2472C13.7118 30.8211 11.07 31.4019 8.94808 31.5555C5.84812 31.7797 4.17294 28.8317 4.79552 26.3569L10.915 2.03331L10.9398 1.94165C11.2106 1.00167 11.9457 0.316621 12.8347 0.0848ZM7.79242 27.0869C7.68148 27.5282 7.78635 27.9289 7.97602 28.1865C8.14962 28.4221 8.39268 28.5502 8.72162 28.5264C10.5265 28.3958 12.365 27.9318 13.773 26.9546C12.4788 25.1233 12.0487 23.4272 12.4313 21.9604C12.8839 20.2253 14.409 19.2057 15.831 19.2057C17.0045 19.2057 18.5362 19.8071 19.1719 21.395C19.789 22.9363 19.3256 24.8442 17.9406 26.992C17.9348 27.0011 17.9284 27.0099 17.9225 27.019C19.7114 28.5767 21.6308 28.9925 23.1614 28.9613C23.2922 28.9586 23.3654 28.9261 23.4101 28.8975C23.4597 28.8657 23.5188 28.8089 23.5714 28.7094C23.6832 28.4977 23.7336 28.1397 23.5895 27.7511L19.6531 17.1391C17.9688 17.1468 16.1926 16.5275 14.4378 15.0431C13.7914 14.4963 13.718 13.5373 14.2738 12.9013C14.8296 12.2653 15.8042 12.1931 16.4506 12.7399C18.2325 14.2471 19.704 14.2923 20.9122 13.8786C20.9939 13.8507 21.0749 13.8193 21.1558 13.7867V11.1203C19.9096 10.7936 18.793 10.6855 17.7702 10.6579C16.8854 10.6339 16.1598 9.99313 16.018 9.15493C15.6478 6.96773 14.6781 5.06949 13.6882 3.65109L7.79242 27.0869ZM15.831 22.2431C15.831 22.2431 15.7752 22.2438 15.6643 22.3288C15.5709 22.4003 15.4726 22.5196 15.4216 22.7153C15.3558 22.9677 15.3346 23.5453 15.8437 24.4849C16.4755 23.2455 16.3606 22.6615 16.2992 22.5083C16.2435 22.3691 16.0826 22.2431 15.831 22.2431Z" fill="white"/>
</g>
<defs>
<clipPath id="clip0_35176_9938">
<rect width="32" height="32" fill="white"/>
</clipPath>
</defs>
</svg>
