<svg width="1920" height="675" viewBox="0 0 1920 675" fill="none" xmlns="http://www.w3.org/2000/svg">
<g clip-path="url(#clip0_33917_2585)">
<path d="M-53 674.998C158.5 461.998 539 280.998 799.5 280.998V131.998C500 131.998 80 280.998 -53 413.998V674.998Z" fill="url(#paint0_linear_33917_2585)"/>
<path d="M1973 669.998C1761.5 456.998 1381 275.998 1120.5 275.998V126.998C1420 126.998 1840 275.998 1973 408.998V669.998Z" fill="url(#paint1_linear_33917_2585)"/>
<path d="M970.126 117.445C960.038 110.672 946.37 113.36 939.598 123.448C932.825 133.535 935.513 147.203 945.6 153.976L1016.17 201.355C1020.53 204.279 1021.69 210.181 1018.76 214.537C1015.84 218.893 1009.94 220.054 1005.58 217.129L959.502 186.194C950.561 180.191 938.446 182.573 932.443 191.514C926.44 200.455 928.822 212.57 937.764 218.573L1057.5 298.961C1089.27 320.288 1132.69 296.009 1157.35 259.281C1172.51 236.693 1173.92 208.59 1174.65 183.025L1172.54 114.394C1173.4 101.718 1159.75 86.8166 1144.86 88.4113C1129.96 90.006 1123.06 101.422 1117.45 117.842C1111.83 134.261 1112.87 147.029 1112.7 149.498C1112.53 151.967 1112.14 168.065 1113.76 173.586C1115.46 179.416 1112.12 185.526 1106.29 187.233C1100.46 188.94 1094.35 185.597 1092.64 179.767C1089.87 170.297 1089.76 158.267 1090.8 147.404C1091.44 140.747 1092.56 134.005 1094.04 127.87C1094.86 124.46 1093.59 120.839 1090.67 118.883L1015.22 68.2227C1005.13 61.4502 991.461 64.1379 984.688 74.2253C977.916 84.313 980.603 97.9809 990.691 104.753L1051.71 145.722C1056.76 149.108 1058.1 155.942 1054.72 160.986C1051.33 166.03 1044.5 167.374 1039.45 163.988L970.126 117.445Z" fill="#FFD43A"/>
<path d="M916.355 156.712C931.819 183.497 922.642 217.746 895.858 233.21C892.908 234.913 889.867 236.316 886.772 237.43C888.85 258.629 878.677 280.082 859.029 291.425C835.942 304.755 807.31 299.775 789.941 280.994C757.225 286.401 721.514 269.243 702.248 235.871C683.029 202.584 685.961 163.193 706.858 137.559C698.651 112.861 708.608 84.9762 732.029 71.4541C751.988 59.9308 776.092 62.09 793.479 75.0215C795.904 73.0034 798.532 71.1625 801.357 69.5316C828.141 54.0677 862.39 63.2449 877.854 90.029C885.311 102.944 887.038 117.594 883.825 131.038C897.074 134.977 908.898 143.798 916.355 156.712Z" fill="#B0DCFF"/>
<circle cx="757.294" cy="119.218" r="18" transform="rotate(60 757.294 119.218)" fill="#FEF9E6"/>
<circle cx="830.294" cy="245.658" r="18" transform="rotate(60 830.294 245.658)" fill="#FEF9E6"/>
<circle cx="863.39" cy="184.982" r="18" transform="rotate(60 863.39 184.982)" fill="#FEF9E6"/>
<circle cx="826.39" cy="120.896" r="18" transform="rotate(60 826.39 120.896)" fill="#FEF9E6"/>
<path d="M799.857 167.335C808.897 168.587 814.341 178.016 810.906 186.472L795.547 224.276C791.161 235.071 776.278 236.097 770.452 226.006L745.392 182.601C739.566 172.511 747.897 160.135 759.438 161.734L799.857 167.335Z" fill="#FEF9E6"/>
<circle cx="793.5" cy="10.998" r="8" fill="#34AFF7"/>
<circle cx="1087.5" cy="63.998" r="10" fill="#FE9D35"/>
<circle cx="1128.5" cy="336.998" r="8" fill="#FE9D35"/>
<circle cx="1001.5" cy="294.998" r="10" fill="#34AFF7"/>
<path d="M761.162 313.26C762.853 312.474 764.605 314.225 763.819 315.916L758.192 328.021C757.974 328.49 757.946 329.026 758.114 329.515L762.289 341.663C762.831 343.237 761.323 344.745 759.748 344.204L747.6 340.029C747.111 339.861 746.576 339.889 746.107 340.107L734.002 345.733C732.311 346.519 730.559 344.768 731.345 343.077L736.972 330.972C737.19 330.503 737.218 329.968 737.049 329.479L732.874 317.331C732.333 315.756 733.841 314.248 735.416 314.789L747.564 318.964C748.053 319.132 748.588 319.104 749.057 318.886L761.162 313.26Z" fill="#FE9D35"/>
<path d="M1188.66 152.344C1190.35 151.558 1192.1 153.309 1191.32 155L1185.69 167.105C1185.47 167.574 1185.45 168.109 1185.61 168.599L1189.79 180.747C1190.33 182.321 1188.82 183.829 1187.25 183.288L1175.1 179.113C1174.61 178.945 1174.08 178.973 1173.61 179.191L1161.5 184.817C1159.81 185.603 1158.06 183.852 1158.85 182.161L1164.47 170.056C1164.69 169.587 1164.72 169.052 1164.55 168.563L1160.37 156.415C1159.83 154.84 1161.34 153.332 1162.92 153.873L1175.06 158.048C1175.55 158.216 1176.09 158.188 1176.56 157.97L1188.66 152.344Z" fill="#FE9D35"/>
<path d="M884.882 268.825C886.573 268.039 888.325 269.791 887.539 271.482L884.759 277.462C884.541 277.931 884.513 278.466 884.681 278.955L886.871 285.329C887.413 286.903 885.905 288.411 884.33 287.87L877.957 285.68C877.467 285.512 876.932 285.539 876.463 285.757L870.483 288.537C868.792 289.323 867.04 287.572 867.826 285.881L870.606 279.9C870.824 279.431 870.852 278.896 870.684 278.407L868.494 272.034C867.952 270.459 869.46 268.951 871.035 269.492L877.408 271.683C877.897 271.851 878.433 271.823 878.901 271.605L884.882 268.825Z" fill="#FE9D35"/>
<path d="M670.956 30.2948C671.819 29.855 672.741 30.7766 672.301 31.6398L669.41 37.3131C669.214 37.6992 669.288 38.1679 669.594 38.4742L674.097 42.9767C674.782 43.6616 674.19 44.823 673.233 44.6714L666.944 43.6754C666.516 43.6076 666.093 43.8231 665.897 44.2091L663.006 49.8824C662.566 50.7456 661.279 50.5417 661.127 49.5849L660.131 43.2959C660.063 42.868 659.728 42.5324 659.3 42.4647L653.011 41.4686C652.054 41.317 651.85 40.0297 652.713 39.5899L658.387 36.6992C658.773 36.5025 658.988 36.0796 658.92 35.6517L657.924 29.3627C657.773 28.4059 658.934 27.8142 659.619 28.4992L664.122 33.0016C664.428 33.3079 664.897 33.3822 665.283 33.1855L670.956 30.2948Z" fill="#E0E0E0"/>
<path d="M899.146 78.9774C898.706 79.8406 899.628 80.7622 900.491 80.3224L904.87 78.0914C905.256 77.8947 905.725 77.9689 906.031 78.2753L909.506 81.7502C910.191 82.4352 911.352 81.8435 911.201 80.8867L910.432 76.0329C910.364 75.605 910.58 75.1821 910.966 74.9854L915.344 72.7544C916.207 72.3146 916.003 71.0272 915.047 70.8757L910.193 70.1069C909.765 70.0392 909.429 69.7036 909.362 69.2757L908.593 64.4219C908.441 63.4651 907.154 63.2612 906.714 64.1244L904.483 68.503C904.286 68.889 903.864 69.1045 903.436 69.0367L898.582 68.2679C897.625 68.1164 897.033 69.2777 897.718 69.9627L901.193 73.4377C901.5 73.744 901.574 74.2128 901.377 74.5988L899.146 78.9774Z" fill="#E0E0E0"/>
<path d="M966.479 252.881C967.343 252.441 968.264 253.362 967.824 254.226L965.593 258.604C965.397 258.99 965.471 259.459 965.777 259.765L969.252 263.24C969.937 263.925 969.345 265.087 968.389 264.935L963.535 264.166C963.107 264.099 962.684 264.314 962.487 264.7L960.256 269.079C959.817 269.942 958.529 269.738 958.378 268.781L957.609 263.927C957.541 263.499 957.206 263.164 956.778 263.096L951.924 262.327C950.967 262.176 950.763 260.888 951.626 260.449L956.005 258.218C956.391 258.021 956.606 257.598 956.539 257.17L955.77 252.316C955.618 251.36 956.78 250.768 957.465 251.453L960.94 254.928C961.246 255.234 961.715 255.308 962.101 255.112L966.479 252.881Z" fill="#E0E0E0"/>
</g>
<defs>
<linearGradient id="paint0_linear_33917_2585" x1="799.5" y1="323.998" x2="-46.5" y2="323.998" gradientUnits="userSpaceOnUse">
<stop stop-color="#B0DCFF" stop-opacity="0.7"/>
<stop offset="1" stop-color="#B0DCFF" stop-opacity="0"/>
</linearGradient>
<linearGradient id="paint1_linear_33917_2585" x1="1111.33" y1="350.724" x2="1973" y2="350.724" gradientUnits="userSpaceOnUse">
<stop stop-color="#FFD43A" stop-opacity="0.7"/>
<stop offset="1" stop-color="#FFD43A" stop-opacity="0"/>
</linearGradient>
<clipPath id="clip0_33917_2585">
<rect width="1920" height="675" fill="white"/>
</clipPath>
</defs>
</svg>
