<svg width="152" height="162" viewBox="0 0 152 162" fill="none" xmlns="http://www.w3.org/2000/svg">
<path d="M84.1732 39.3128C82.7261 34.859 78.2173 31.8807 73.7346 33.3369C69.2517 34.7934 66.3927 40.1658 67.8399 44.6198L76.7109 71.9218L76.7735 72.1304C77.3643 74.2762 76.2632 76.2308 74.0923 76.9364L73.8818 76.9997C71.7901 77.5803 69.8553 76.6407 69.0973 74.6246L69.0253 74.419L58.9307 43.3508C57.4834 38.8972 52.3195 37.1727 47.8368 38.629C43.354 40.0856 41.1504 44.2039 42.5974 48.6579L52.6921 79.726L52.745 79.908C53.2344 81.8015 51.9476 84.1315 50.0725 84.7409L49.8896 84.7942C48.0437 85.2764 45.7637 84.1628 45.0697 82.4019L45.0056 82.2235L38.5817 62.4528C37.299 58.5051 33.3828 55.8157 29.4094 57.1066C25.4362 58.3978 23.8487 62.8754 25.1313 66.8231L42.2616 119.545L42.4858 120.194C47.3289 133.428 65.3135 135.733 81.1966 130.827L81.9637 130.584C91.3744 127.526 98.2394 120.092 104.299 112.917L105.5 111.487L121.088 90.8098C124.391 87.1621 123.34 79.117 118.421 76.0636C113.502 73.0103 109.047 75.2079 103.398 78.8636C97.7485 82.5192 95.0019 86.2939 94.3585 87.0045C93.7152 87.7149 90.3012 92.7768 89.4687 94.8384C88.6171 96.9473 86.0563 97.5405 83.9104 96.7881L83.7038 96.7115C81.5187 95.8452 80.029 93.5518 80.9081 91.3748C82.336 87.8388 85.4515 84.7167 88.3738 81.6627C90.0004 79.9628 91.726 78.3165 93.4523 76.887C94.8056 75.7662 95.4265 73.9468 94.8835 72.2756L84.1732 39.3128ZM104.943 64.4019C105.989 63.9815 107.078 63.6118 108.201 63.3238C113.392 61.9921 118.945 62.4558 124.238 65.5595L124.75 65.8685L125.315 66.2323C131.06 70.0649 133.839 76.1203 134.681 81.2817C135.491 86.2464 134.905 93.0329 130.428 98.3543L114.898 118.955L114.701 119.19C108.657 126.411 99.4731 137.512 85.6719 141.996C75.9471 145.156 64.9166 146.268 55.0313 144.012C45.103 141.746 35.1263 135.637 31.0391 123.819L30.8489 123.253L13.7187 70.5313C10.9644 62.0545 13.7866 49.5655 25.7012 45.694C27.2394 45.1942 28.74 44.9008 30.192 44.7852C30.3512 42.0936 31.0621 39.4253 32.3732 36.9329C34.9082 32.1141 39.2289 28.8083 44.1286 27.2163L44.5388 27.0882C49.311 25.6548 55.4058 25.822 60.6021 28.3327C63.0746 25.4082 66.3099 23.1317 70.0264 21.9242L70.5972 21.7469C82.5548 18.2211 92.6321 26.5137 95.5859 35.6046L104.943 64.4019Z" fill="#FFD43A"/>
</svg>
