<?xml version="1.0" encoding="UTF-8"?><!DOCTYPE svg PUBLIC "-//W3C//DTD SVG 1.1//EN" "http://www.w3.org/Graphics/SVG/1.1/DTD/svg11.dtd"><svg xmlns="http://www.w3.org/2000/svg" xmlns:xlink="http://www.w3.org/1999/xlink"><defs/><symbol id="icon_lang" viewBox="0 0 48 48"><path stroke="currentColor" stroke-linecap="round" stroke-linejoin="round" stroke-width="3.75" d="M44 24c0 11.046-8.954 20-20 20m20-20c0-11.046-8.954-20-20-20m20 20H4m20 20C12.954 44 4 35.046 4 24m20 20a30.6 30.6 0 0 0 8-20 30.6 30.6 0 0 0-8-20m0 40a30.6 30.6 0 0 1-8-20 30.6 30.6 0 0 1 8-20M4 24C4 12.954 12.954 4 24 4" vector-effect="non-scaling-stroke"/></symbol><symbol id="icon_logo" viewBox="0 0 38 38"><path fill="currentColor" fill-rule="evenodd" d="M14.04 2.075c5.265-.48 8.504 1.4 10.337 3.896.892 1.216 1.401 2.509 1.684 3.6a.564.564 0 0 0 .542.428h6.426c1.009 0 1.836.8 1.868 1.809.084 2.586-.397 6.218-2.22 9.077-.93 1.46-2.237 2.755-4.018 3.55-1.272.567-2.712.846-4.318.802.14.805.417 1.79.851 2.936.479 1.261 1.123 2.652 1.91 4.114.49.908.2 2.053-.69 2.578-.888.525-2.037.232-2.53-.675-.885-1.63-1.625-3.216-2.184-4.692-.67-1.767-1.122-3.483-1.195-4.975-1.444-.541-2.727-1.366-3.855-2.266.108 1.73.127 3.603-.028 5.37-.167 1.894-.547 3.856-1.37 5.4-.863 1.62-2.345 2.973-4.584 2.973-1.588 0-2.87-.82-3.814-1.869-.933-1.037-1.653-2.416-2.199-3.914-1.096-3.006-1.645-6.914-1.548-10.794.098-3.874.844-7.917 2.504-11.135 1.68-3.254 4.412-5.847 8.431-6.213m7.324 6.108c-.988-1.346-2.905-2.757-6.985-2.386-2.357.215-4.15 1.687-5.448 4.204-1.317 2.552-2 5.986-2.09 9.515-.088 3.523.421 6.947 1.324 9.42.453 1.243.967 2.141 1.466 2.696.489.543.835.63 1.035.63.446 0 .852-.178 1.285-.991.473-.888.795-2.26.946-3.971.296-3.367-.131-7.312-.518-9.382l-1.201-5.263a1.09 1.09 0 0 1 .862-1.316l.794-.149a6.5 6.5 0 0 1 2.47.01c.716.148 1.696.507 2.319 1.37.341.473.54 1.059.515 1.702-.024.617-.25 1.16-.536 1.606-.277.431-.655.837-1.113 1.223l1.41 1.301c1.637 1.512 3.295 2.625 5.076 2.943 1.835.327 3.174.117 4.161-.324.992-.442 1.775-1.18 2.39-2.145.832-1.306 1.306-2.955 1.514-4.545a.53.53 0 0 0-.532-.594h-5.985a1.87 1.87 0 0 1-1.869-1.869c0-.423-.19-2.186-1.29-3.685" clip-rule="evenodd" vector-effect="non-scaling-stroke"/></symbol><symbol id="icon_loop-gift" viewBox="0 0 32 32"><path fill="currentColor" d="M26.601 18.81c0-.621-.002-1.1-.006-1.499a5 5 0 0 1-.595.041h-8.6v10.534h.6c1.573 0 2.68 0 3.548-.063.855-.06 1.372-.177 1.78-.353 1.28-.556 2.319-1.631 2.864-3.01.177-.45.29-1.014.349-1.92.06-.918.06-2.085.06-3.73M23.577 5.966a1.933 1.933 0 0 0-2.734 0l-1.92 1.92h5.139a1.94 1.94 0 0 0-.485-1.92m-12.21 0a1.934 1.934 0 0 0-3.218 1.92h5.139zM5.402 18.809c0 1.646 0 2.813.06 3.73.06.907.172 1.472.35 1.92.544 1.38 1.582 2.455 2.862 3.01.408.177.925.293 1.78.354.868.062 1.975.063 3.548.063h.6V17.352h-8.6a5 5 0 0 1-.62-.04c.01.385.02.862.02 1.497m22.533-6.19A1.934 1.934 0 0 0 26 10.685h-8.6v3.868H26a1.93 1.93 0 0 0 1.934-1.934Zm-23.866 0c0 .62.29 1.172.749 1.528l.126.091c.303.2.666.315 1.057.315h8.601v-3.868h-8.6a1.933 1.933 0 0 0-1.933 1.934m26.666 0a4.72 4.72 0 0 1-1.374 3.334c.04.749.04 1.494.04 2.857 0 1.608.002 2.882-.066 3.912-.067 1.041-.209 1.933-.539 2.767-.808 2.044-2.366 3.688-4.352 4.55-.818.355-1.69.505-2.695.577-.99.07-2.214.07-3.748.07h-4c-1.532 0-2.755 0-3.747-.07-1.005-.072-1.876-.222-2.694-.577-1.986-.862-3.545-2.506-4.352-4.55-.33-.834-.472-1.726-.54-2.767-.067-1.03-.066-2.304-.066-3.913 0-1.295-.054-2.115-.033-2.935a4.72 4.72 0 0 1-1.3-3.255 4.735 4.735 0 0 1 4.04-4.683 4.734 4.734 0 0 1 8.041-3.95l2.756 2.757 2.758-2.757A4.734 4.734 0 0 1 26.9 7.972a4.734 4.734 0 0 1 3.835 4.647" vector-effect="non-scaling-stroke"/></symbol><symbol id="icon_loop-heart" viewBox="0 0 32 32"><path fill="currentColor" d="M3.92 4.968C5.774 3.075 7.861 2.477 9.825 2.62c1.893.139 3.579.957 4.79 1.726.804.51 1.966.51 2.77 0 1.21-.769 2.897-1.587 4.79-1.726 1.963-.143 4.05.456 5.906 2.348 2.187 2.23 2.868 4.985 2.595 7.742-.268 2.714-1.455 5.449-3.015 7.852-1.567 2.411-3.568 4.577-5.58 6.154C20.128 28.245 17.934 29.4 16 29.4s-4.128-1.155-6.08-2.684c-2.013-1.577-4.013-3.743-5.58-6.154-1.56-2.403-2.747-5.138-3.015-7.852-.273-2.757.408-5.512 2.594-7.742Zm22.163 1.96c-1.256-1.281-2.527-1.6-3.702-1.515-1.244.091-2.476.65-3.496 1.297-1.719 1.09-4.05 1.09-5.768 0-1.02-.647-2.252-1.206-3.497-1.297-1.174-.086-2.445.233-3.702 1.515-1.507 1.537-2.013 3.422-1.807 5.506.21 2.126 1.169 4.434 2.577 6.602 1.403 2.16 3.196 4.095 4.959 5.476C13.47 25.94 15.035 26.6 16 26.6c.966 0 2.531-.66 4.355-2.088 1.763-1.381 3.555-3.316 4.958-5.476 1.408-2.168 2.367-4.476 2.577-6.602.206-2.084-.3-3.97-1.807-5.506m-5.42.575a1.4 1.4 0 0 1 1.805-.811c.817.31 1.6.812 2.324 1.53a7.3 7.3 0 0 1 1.88 3.068 1.4 1.4 0 0 1-2.675.825 4.5 4.5 0 0 0-1.175-1.904c-.468-.463-.923-.74-1.348-.902a1.4 1.4 0 0 1-.811-1.806" vector-effect="non-scaling-stroke"/></symbol><symbol id="icon_loop-pencil" viewBox="0 0 32 32"><path fill="currentColor" d="M25.88 25.6a1.4 1.4 0 0 1 0 2.801h-8a1.4 1.4 0 0 1 0-2.8h8ZM13.803 4.048c.947-.254 1.822-.06 2.644.279.785.322 1.697.852 2.751 1.46 1.054.61 1.969 1.135 2.64 1.653.705.543 1.31 1.203 1.564 2.15.254.948.06 1.822-.278 2.645-.323.785-.852 1.697-1.461 2.751l-5.065 8.772c-.415.72-.772 1.375-1.34 1.862-.566.487-1.267.74-2.04 1.043-1.392.544-2.578 1.01-3.554 1.239-1.013.237-2.067.284-3.065-.292s-1.483-1.512-1.785-2.508c-.29-.96-.479-2.22-.704-3.697-.125-.821-.255-1.556-.117-2.29.138-.735.527-1.37.942-2.09L10 8.253c.609-1.055 1.134-1.97 1.652-2.641.543-.704 1.203-1.31 2.15-1.564ZM7.36 18.424c-.51.885-.585 1.052-.615 1.21s-.02.34.134 1.35c.238 1.564.396 2.585.615 3.307.207.684.392.83.505.894s.33.153 1.027-.01c.734-.171 1.699-.544 3.172-1.12.952-.372 1.114-.455 1.236-.56.122-.104.229-.252.74-1.137l4.363-7.56-6.812-3.933zm8.023-11.507c-.533-.22-.737-.195-.856-.163-.119.031-.307.114-.658.569-.22.284-.452.647-.736 1.121l6.797 3.925c.268-.484.468-.867.604-1.198.219-.533.196-.737.164-.856s-.114-.306-.57-.658c-.488-.377-1.206-.796-2.33-1.444-1.122-.649-1.845-1.062-2.415-1.296" vector-effect="non-scaling-stroke"/></symbol><symbol id="Vector-1" viewBox="0 0 24 25"><path fill="#353535" d="m8.773 21.427-.51-1.304zm-5.408 1.038-.7 1.213zM1.56 17.263l-1.384.211zm.654-3.47 1.212.7zm-.78 1.65L.06 15.183zm10.017 3.684 1.213.7zm-1.039 1.5.912 1.061zM7.278 5.02l-1.212-.7zm14.667 19.448a1.4 1.4 0 1 0 0-2.8v2.8m-8-2.8a1.4 1.4 0 1 0 0 2.8v-2.8m2.57-11.314-1.212-.7-5.064 8.772 1.212.7 1.213.7 5.064-8.772zM2.215 13.793l1.212.7L8.491 5.72l-1.213-.7-1.212-.7L1 13.092zm6.56 7.634-.51-1.304c-1.474.576-2.438.949-3.172 1.12-.697.163-.915.075-1.027.01l-.7 1.212-.7 1.213c.997.576 2.051.528 3.064.292.977-.229 2.162-.695 3.554-1.24zM1.56 17.262l-1.384.211c.225 1.478.413 2.737.704 3.697.302.995.787 1.932 1.785 2.508l.7-1.213.7-1.212c-.113-.065-.298-.21-.505-.895-.219-.721-.378-1.742-.616-3.307zm.654-3.47L1 13.093c-.415.72-.804 1.356-.942 2.091l1.376.26 1.376.258c.03-.157.104-.324.615-1.209zm-.654 3.47 1.384-.21c-.154-1.01-.163-1.193-.133-1.35l-1.376-.26-1.376-.259c-.138.735-.008 1.469.117 2.29zm9.891 1.864-1.212-.7c-.511.885-.617 1.033-.74 1.137l.913 1.062.912 1.062c.568-.487.924-1.142 1.34-1.861zm-2.678 2.3.51 1.305c.774-.303 1.474-.557 2.042-1.044l-.913-1.062-.912-1.062c-.122.105-.284.188-1.236.56zm5.79-18.358-.7 1.213c1.124.648 1.843 1.066 2.33 1.443.457.352.538.54.57.66l1.353-.363 1.352-.362c-.254-.949-.86-1.608-1.564-2.151-.672-.519-1.586-1.043-2.64-1.652zm1.953 7.286 1.212.7c.61-1.055 1.139-1.966 1.461-2.75.338-.823.533-1.697.279-2.645l-1.352.362-1.353.362c.032.12.055.323-.164.856-.234.57-.647 1.292-1.296 2.415zm-1.952-7.286.7-1.212c-1.055-.609-1.966-1.138-2.75-1.461-.823-.338-1.697-.533-2.645-.279l.362 1.353.362 1.352c.12-.032.323-.055.856.164.57.234 1.292.647 2.415 1.296zM7.278 5.02l1.213.7c.648-1.123 1.066-1.841 1.443-2.33.352-.456.54-.537.66-.57L10.23 1.47 9.869.116C8.92.37 8.26.976 7.718 1.68c-.519.672-1.043 1.586-1.652 2.64zm9.238 5.334.7-1.213-9.238-5.333-.7 1.212-.7 1.213 9.238 5.333zm5.429 12.714v-1.4h-8v2.8h8z"/></symbol><symbol id="Vector-2" viewBox="0 0 30 27"><path stroke="#353535" stroke-linecap="round" stroke-width="2.8" d="M24.067 9.103a5.9 5.9 0 0 0-1.527-2.485c-.596-.592-1.215-.982-1.836-1.218M12.6 2.928c-2.232-1.415-5.836-2.754-8.948.42C-3.736 10.882 8.934 25.4 14.734 25.4s18.47-14.518 11.082-22.052c-3.113-3.174-6.716-1.835-8.948-.42-1.26.8-3.008.8-4.268 0Z"/></symbol><symbol id="Vector" viewBox="0 0 30 29"><path fill="#353535" d="m6.85 26.155-.558 1.284zm-3.609-3.78-1.302.515zm22.985 0 1.302.515zm-3.608 3.78.558 1.284zM2.734 12.686l1.394.124.069-.77-.617-.469zm22-6v-1.4zm-8.977-1.48.99.99zm2.829-2.83.99.99zm4.714 0-.99.99zm.345 4.31v1.4h.715l.419-.578zm-9.726-1.48-.99.99zm-2.828-2.83-.99.99zm-4.714 0 .99.99zm8.357 22.977h1.4zM2.69 12.653l-.858 1.106zm23.958.096-.805-1.145zM12.734 26.686v-1.4c-1.573 0-2.68 0-3.548-.063-.854-.06-1.372-.176-1.78-.353l-.557 1.285-.557 1.284c.818.355 1.69.506 2.694.577.991.071 2.215.07 3.748.07zm-10-10.476h-1.4c0 1.609 0 2.883.066 3.912.068 1.042.21 1.933.54 2.768l1.301-.515 1.302-.515c-.177-.449-.29-1.013-.349-1.92-.06-.917-.06-2.084-.06-3.73zm4.115 9.945.557-1.285c-1.28-.555-2.318-1.63-2.863-3.01l-1.302.515-1.302.515c.808 2.043 2.366 3.687 4.353 4.549zm19.885-9.945h-1.4c0 1.645-.001 2.813-.06 3.73-.06.907-.172 1.471-.35 1.92l1.302.515 1.302.515c.33-.835.472-1.726.54-2.768.066-1.03.066-2.303.066-3.912zm-10 10.476v1.4c1.533 0 2.756.001 3.747-.07 1.005-.071 1.877-.222 2.695-.577l-.558-1.284-.557-1.285c-.407.177-.925.292-1.78.353-.868.063-1.974.063-3.547.063zm9.492-4.311-1.302-.515c-.545 1.38-1.582 2.455-2.863 3.01l.557 1.285.558 1.284c1.986-.862 3.544-2.506 4.352-4.55zM2.734 16.21h1.4c0-2.014-.091-2.44-.006-3.4l-1.394-.124-1.395-.123c-.098 1.103-.005 1.983-.005 3.647zm22-9.524v1.4c1.067 0 1.933.866 1.933 1.934h2.8a4.733 4.733 0 0 0-4.733-4.734zm-20 0v-1.4A4.733 4.733 0 0 0 0 10.02h2.8c0-1.068.866-1.934 1.934-1.934zm11.023-1.48.99.99 2.829-2.83-.99-.99-.99-.99-2.828 2.83zm2.829-2.83.99.99a1.933 1.933 0 0 1 2.734 0l.99-.99.99-.99a4.733 4.733 0 0 0-6.694 0zm-2.829 2.83-.99-.99c-.414.414-1.129 1.162-1.384 2.104l1.35.366 1.352.367c.039-.143.225-.42.662-.858zm7.543-2.83-.99.99c.68.68.748 1.744.201 2.499l1.134.821 1.134.822a4.734 4.734 0 0 0-.49-6.121zm-9.38 2.83.99-.99-2.83-2.83-.99.99-.99.99 2.83 2.83zm-2.83-2.83.99-.99a4.733 4.733 0 0 0-6.693 0l.99.99.99.99a1.933 1.933 0 0 1 2.734 0zm2.83 2.83-.99.99c.204.204.349.474.453.857l1.35-.367 1.352-.366c-.19-.702-.529-1.458-1.176-2.105zm-7.543-2.83-.99-.99a4.734 4.734 0 0 0-.49 6.122l1.135-.822 1.133-.821a1.934 1.934 0 0 1 .202-2.498zm8.357 4.31h-1.4v18.667h2.8V6.686zm-8.702 0v1.4h8.702v-2.8H6.032zm-1.298 6.667v-1.4c-.448 0-.857-.15-1.185-.405l-.859 1.105-.858 1.106a4.72 4.72 0 0 0 2.902.994zm-2.044-.7.86-1.105a1.93 1.93 0 0 1-.75-1.528H0c0 1.521.72 2.875 1.832 3.74zm.044.033.846-1.115-.043-.033-.847 1.115-.846 1.116.043.033zm14 14v-1.4h-2v2.8h2zm-2 0v-1.4h-2v2.8h2zm0-1.333h-1.4v1.333h2.8v-1.333zm10-12v-1.4h-10v2.8h10zm-10 0v-1.4h-10v2.8h10zm13.333-3.333h-1.4a1.93 1.93 0 0 1-.824 1.584l.805 1.145.804 1.146a4.73 4.73 0 0 0 2.015-3.875zm-1.42 2.73-.804-1.146c-.314.22-.694.349-1.11.349v2.8c1.01 0 1.95-.318 2.72-.858zm.087 3.46h1.4c0-1.79 0-2.515-.092-3.581l-1.394.12-1.395.12c.08.926.08 1.527.08 3.341zm-12-9.524v1.4H23.3v-2.8h-8.566zm8.566 0v1.4h.345v-2.8H23.3zm0 0v1.4h1.434v-2.8H23.3zm-17.268 0v-1.4H4.734v2.8h1.298zm-1.298 0v1.4h5v-2.8h-5zm5 0v1.4h5v-2.8h-5zm-3.702 0v1.4h3.702v-2.8H6.032zm8.702 0v1.4h8.911v-2.8h-8.911z"/></symbol></svg>