<svg xmlns="http://www.w3.org/2000/svg" width="32" height="32" fill="none" viewBox="0 0 32 32"><path fill="currentColor" d="M3.92 4.968C5.774 3.075 7.861 2.477 9.825 2.62c1.893.139 3.579.957 4.79 1.726.804.51 1.966.51 2.77 0 1.21-.769 2.897-1.587 4.79-1.726 1.963-.143 4.05.456 5.906 2.348 2.187 2.23 2.868 4.985 2.595 7.742-.268 2.714-1.455 5.449-3.015 7.852-1.567 2.411-3.568 4.577-5.58 6.154C20.128 28.245 17.934 29.4 16 29.4s-4.128-1.155-6.08-2.684c-2.013-1.577-4.013-3.743-5.58-6.154-1.56-2.403-2.747-5.138-3.015-7.852-.273-2.757.408-5.512 2.594-7.742Zm22.163 1.96c-1.256-1.281-2.527-1.6-3.702-1.515-1.244.091-2.476.65-3.496 1.297-1.719 1.09-4.05 1.09-5.768 0-1.02-.647-2.252-1.206-3.497-1.297-1.174-.086-2.445.233-3.702 1.515-1.507 1.537-2.013 3.422-1.807 5.506.21 2.126 1.169 4.434 2.577 6.602 1.403 2.16 3.196 4.095 4.959 5.476C13.47 25.94 15.035 26.6 16 26.6c.966 0 2.531-.66 4.355-2.088 1.763-1.381 3.555-3.316 4.958-5.476 1.408-2.168 2.367-4.476 2.577-6.602.206-2.084-.3-3.97-1.807-5.506m-5.42.575a1.4 1.4 0 0 1 1.805-.811c.817.31 1.6.812 2.324 1.53a7.3 7.3 0 0 1 1.88 3.068 1.4 1.4 0 0 1-2.675.825 4.5 4.5 0 0 0-1.175-1.904c-.468-.463-.923-.74-1.348-.902a1.4 1.4 0 0 1-.811-1.806" vector-effect="non-scaling-stroke"/></svg>