<svg xmlns="http://www.w3.org/2000/svg" width="32" height="32" fill="none" viewBox="0 0 32 32"><path fill="currentColor" d="M26.601 18.81c0-.621-.002-1.1-.006-1.499a5 5 0 0 1-.595.041h-8.6v10.534h.6c1.573 0 2.68 0 3.548-.063.855-.06 1.372-.177 1.78-.353 1.28-.556 2.319-1.631 2.864-3.01.177-.45.29-1.014.349-1.92.06-.918.06-2.085.06-3.73M23.577 5.966a1.933 1.933 0 0 0-2.734 0l-1.92 1.92h5.139a1.94 1.94 0 0 0-.485-1.92m-12.21 0a1.934 1.934 0 0 0-3.218 1.92h5.139zM5.402 18.809c0 1.646 0 2.813.06 3.73.06.907.172 1.472.35 1.92.544 1.38 1.582 2.455 2.862 3.01.408.177.925.293 1.78.354.868.062 1.975.063 3.548.063h.6V17.352h-8.6a5 5 0 0 1-.62-.04c.01.385.02.862.02 1.497m22.533-6.19A1.934 1.934 0 0 0 26 10.685h-8.6v3.868H26a1.93 1.93 0 0 0 1.934-1.934Zm-23.866 0c0 .62.29 1.172.749 1.528l.126.091c.303.2.666.315 1.057.315h8.601v-3.868h-8.6a1.933 1.933 0 0 0-1.933 1.934m26.666 0a4.72 4.72 0 0 1-1.374 3.334c.04.749.04 1.494.04 2.857 0 1.608.002 2.882-.066 3.912-.067 1.041-.209 1.933-.539 2.767-.808 2.044-2.366 3.688-4.352 4.55-.818.355-1.69.505-2.695.577-.99.07-2.214.07-3.748.07h-4c-1.532 0-2.755 0-3.747-.07-1.005-.072-1.876-.222-2.694-.577-1.986-.862-3.545-2.506-4.352-4.55-.33-.834-.472-1.726-.54-2.767-.067-1.03-.066-2.304-.066-3.913 0-1.295-.054-2.115-.033-2.935a4.72 4.72 0 0 1-1.3-3.255 4.735 4.735 0 0 1 4.04-4.683 4.734 4.734 0 0 1 8.041-3.95l2.756 2.757 2.758-2.757A4.734 4.734 0 0 1 26.9 7.972a4.734 4.734 0 0 1 3.835 4.647" vector-effect="non-scaling-stroke"/></svg>