<svg xmlns="http://www.w3.org/2000/svg" width="38" height="38" fill="none" viewBox="0 0 38 38"><path fill="currentColor" fill-rule="evenodd" d="M14.04 2.075c5.265-.48 8.504 1.4 10.337 3.896.892 1.216 1.401 2.509 1.684 3.6a.564.564 0 0 0 .542.428h6.426c1.009 0 1.836.8 1.868 1.809.084 2.586-.397 6.218-2.22 9.077-.93 1.46-2.237 2.755-4.018 3.55-1.272.567-2.712.846-4.318.802.14.805.417 1.79.851 2.936.479 1.261 1.123 2.652 1.91 4.114.49.908.2 2.053-.69 2.578-.888.525-2.037.232-2.53-.675-.885-1.63-1.625-3.216-2.184-4.692-.67-1.767-1.122-3.483-1.195-4.975-1.444-.541-2.727-1.366-3.855-2.266.108 1.73.127 3.603-.028 5.37-.167 1.894-.547 3.856-1.37 5.4-.863 1.62-2.345 2.973-4.584 2.973-1.588 0-2.87-.82-3.814-1.869-.933-1.037-1.653-2.416-2.199-3.914-1.096-3.006-1.645-6.914-1.548-10.794.098-3.874.844-7.917 2.504-11.135 1.68-3.254 4.412-5.847 8.431-6.213m7.324 6.108c-.988-1.346-2.905-2.757-6.985-2.386-2.357.215-4.15 1.687-5.448 4.204-1.317 2.552-2 5.986-2.09 9.515-.088 3.523.421 6.947 1.324 9.42.453 1.243.967 2.141 1.466 2.696.489.543.835.63 1.035.63.446 0 .852-.178 1.285-.991.473-.888.795-2.26.946-3.971.296-3.367-.131-7.312-.518-9.382l-1.201-5.263a1.09 1.09 0 0 1 .862-1.316l.794-.149a6.5 6.5 0 0 1 2.47.01c.716.148 1.696.507 2.319 1.37.341.473.54 1.059.515 1.702-.024.617-.25 1.16-.536 1.606-.277.431-.655.837-1.113 1.223l1.41 1.301c1.637 1.512 3.295 2.625 5.076 2.943 1.835.327 3.174.117 4.161-.324.992-.442 1.775-1.18 2.39-2.145.832-1.306 1.306-2.955 1.514-4.545a.53.53 0 0 0-.532-.594h-5.985a1.87 1.87 0 0 1-1.869-1.869c0-.423-.19-2.186-1.29-3.685" clip-rule="evenodd" vector-effect="non-scaling-stroke"/></svg>