<svg xmlns="http://www.w3.org/2000/svg" width="32" height="32" fill="none" viewBox="0 0 32 32"><path fill="currentColor" d="M25.88 25.6a1.4 1.4 0 0 1 0 2.801h-8a1.4 1.4 0 0 1 0-2.8h8ZM13.803 4.048c.947-.254 1.822-.06 2.644.279.785.322 1.697.852 2.751 1.46 1.054.61 1.969 1.135 2.64 1.653.705.543 1.31 1.203 1.564 2.15.254.948.06 1.822-.278 2.645-.323.785-.852 1.697-1.461 2.751l-5.065 8.772c-.415.72-.772 1.375-1.34 1.862-.566.487-1.267.74-2.04 1.043-1.392.544-2.578 1.01-3.554 1.239-1.013.237-2.067.284-3.065-.292s-1.483-1.512-1.785-2.508c-.29-.96-.479-2.22-.704-3.697-.125-.821-.255-1.556-.117-2.29.138-.735.527-1.37.942-2.09L10 8.253c.609-1.055 1.134-1.97 1.652-2.641.543-.704 1.203-1.31 2.15-1.564ZM7.36 18.424c-.51.885-.585 1.052-.615 1.21s-.02.34.134 1.35c.238 1.564.396 2.585.615 3.307.207.684.392.83.505.894s.33.153 1.027-.01c.734-.171 1.699-.544 3.172-1.12.952-.372 1.114-.455 1.236-.56.122-.104.229-.252.74-1.137l4.363-7.56-6.812-3.933zm8.023-11.507c-.533-.22-.737-.195-.856-.163-.119.031-.307.114-.658.569-.22.284-.452.647-.736 1.121l6.797 3.925c.268-.484.468-.867.604-1.198.219-.533.196-.737.164-.856s-.114-.306-.57-.658c-.488-.377-1.206-.796-2.33-1.444-1.122-.649-1.845-1.062-2.415-1.296" vector-effect="non-scaling-stroke"/></svg>