<svg width="38" height="38" viewBox="0 0 38 38" fill="none" xmlns="http://www.w3.org/2000/svg">
<path fill-rule="evenodd" clip-rule="evenodd" d="M14.0397 2.07492C19.3047 1.59492 22.5437 3.47492 24.3767 5.97092C25.2687 7.18692 25.7777 8.47992 26.0607 9.57092C26.0909 9.69224 26.1604 9.80011 26.2585 9.87758C26.3567 9.95505 26.4777 9.99773 26.6027 9.99892H33.0287C34.0377 9.99892 34.8647 10.7989 34.8967 11.8079C34.9807 14.3939 34.4997 18.0259 32.6767 20.8849C31.7467 22.3449 30.4397 23.6399 28.6587 24.4349C27.3867 25.0019 25.9467 25.2809 24.3407 25.2369C24.4807 26.0419 24.7577 27.0269 25.1917 28.1729C25.6707 29.4339 26.3147 30.8249 27.1017 32.2869C27.5917 33.1949 27.3017 34.3399 26.4117 34.8649C25.5237 35.3899 24.3747 35.0969 23.8817 34.1899C22.9967 32.5599 22.2567 30.9739 21.6977 29.4979C21.0277 27.7309 20.5757 26.0149 20.5027 24.5229C19.0587 23.9819 17.7757 23.1569 16.6477 22.2569C16.7557 23.9869 16.7747 25.8599 16.6197 27.6269C16.4527 29.5209 16.0727 31.4829 15.2497 33.0269C14.3867 34.6469 12.9047 35.9999 10.6657 35.9999C9.07772 35.9999 7.79572 35.1799 6.85172 34.1309C5.91872 33.0939 5.19872 31.7149 4.65272 30.2169C3.55672 27.2109 3.00772 23.3029 3.10472 19.4229C3.20272 15.5489 3.94872 11.5059 5.60872 8.28792C7.28872 5.03392 10.0207 2.44092 14.0397 2.07492ZM21.3637 8.18292C20.3757 6.83692 18.4587 5.42592 14.3787 5.79692C12.0217 6.01192 10.2287 7.48392 8.93072 10.0009C7.61372 12.5529 6.93072 15.9869 6.84072 19.5159C6.75272 23.0389 7.26172 26.4629 8.16472 28.9359C8.61772 30.1789 9.13172 31.0769 9.63072 31.6319C10.1197 32.1749 10.4657 32.2619 10.6657 32.2619C11.1117 32.2619 11.5177 32.0839 11.9507 31.2709C12.4237 30.3829 12.7457 29.0109 12.8967 27.2999C13.1927 23.9329 12.7657 19.9879 12.3787 17.9179L11.1777 12.6549C11.1447 12.5117 11.1411 12.3633 11.1669 12.2187C11.1928 12.074 11.2476 11.9361 11.3281 11.8131C11.4086 11.6902 11.5132 11.5848 11.6355 11.5033C11.7578 11.4218 11.8953 11.3659 12.0397 11.3389L12.8337 11.1899C13.6501 11.0354 14.4886 11.0387 15.3037 11.1999C16.0197 11.3479 16.9997 11.7069 17.6227 12.5699C17.9637 13.0429 18.1627 13.6289 18.1377 14.2719C18.1137 14.8889 17.8877 15.4319 17.6017 15.8779C17.3247 16.3089 16.9467 16.7149 16.4887 17.1009L17.8987 18.4019C19.5357 19.9139 21.1937 21.0269 22.9747 21.3449C24.8097 21.6719 26.1487 21.4619 27.1357 21.0209C28.1277 20.5789 28.9107 19.8409 29.5257 18.8759C30.3577 17.5699 30.8317 15.9209 31.0397 14.3309C31.0488 14.256 31.0418 14.1799 31.0192 14.1079C30.9965 14.0359 30.9588 13.9695 30.9084 13.9133C30.858 13.8571 30.7962 13.8122 30.7271 13.7818C30.658 13.7514 30.5832 13.7361 30.5077 13.7369H24.5227C24.0271 13.7367 23.5519 13.5397 23.2014 13.1892C22.851 12.8388 22.654 12.3635 22.6537 11.8679C22.6537 11.4449 22.4637 9.68192 21.3637 8.18292Z" fill="black"/>
</svg>
